<?xml version="1.0" encoding="UTF-8" standalone="no"?><!DOCTYPE svg PUBLIC "-//W3C//DTD SVG 1.1//EN" "http://www.w3.org/Graphics/SVG/1.1/DTD/svg11.dtd"><!-- Generated by graphviz version 2.40.1 (20161225.0304)
 --><!-- Title: G Pages: 1 --><svg xmlns="http://www.w3.org/2000/svg" xmlns:xlink="http://www.w3.org/1999/xlink" width="474pt" height="408pt" viewBox="0.00 0.00 473.90 407.83">
<g id="graph0" class="graph" transform="scale(1 1) rotate(0) translate(4 403.8266)">
<title>G</title>
<polygon fill="#ffffff" stroke="transparent" points="-4,4 -4,-403.8266 469.9039,-403.8266 469.9039,4 -4,4"/>
<!-- 2 -->
<g id="node1" class="node">
<title>2</title>
<ellipse fill="none" stroke="#000000" cx="197.4977" cy="-29.4156" rx="64.1878" ry="29.3315"/>
<text text-anchor="middle" x="197.4977" y="-33.6156" font-family="Times,serif" font-size="14.00" fill="#000000">2</text>
<text text-anchor="middle" x="197.4977" y="-16.8156" font-family="Times,serif" font-size="14.00" fill="#000000">(20,2), (20,3)</text>
</g>
<!-- 3 -->
<g id="node2" class="node">
<title>3</title>
<ellipse fill="none" stroke="#000000" cx="367.9953" cy="-199.9133" rx="97.8172" ry="29.3315"/>
<text text-anchor="middle" x="367.9953" y="-204.1133" font-family="Times,serif" font-size="14.00" fill="#000000">3</text>
<text text-anchor="middle" x="367.9953" y="-187.3133" font-family="Times,serif" font-size="14.00" fill="#000000">(40,1), (40,1), (100,3)</text>
</g>
<!-- 2&#45;&#45;3 -->
<g id="edge4" class="edge">
<title>2--3</title>
<path fill="none" stroke="#000000" d="M224.5135,-56.4315C255.9693,-87.8873 307.6874,-139.6054 339.6864,-171.6044"/>
<text text-anchor="middle" x="278.6" y="-118.2179" font-family="Times,serif" font-size="14.00" fill="#000000">5</text>
</g>
<!-- 4 -->
<g id="node3" class="node">
<title>4</title>
<ellipse fill="none" stroke="#000000" cx="197.4977" cy="-370.411" rx="35.4593" ry="29.3315"/>
<text text-anchor="middle" x="197.4977" y="-374.611" font-family="Times,serif" font-size="14.00" fill="#000000">4</text>
<text text-anchor="middle" x="197.4977" y="-357.811" font-family="Times,serif" font-size="14.00" fill="#000000">(20,2)</text>
</g>
<!-- 2&#45;&#45;4 -->
<g id="edge5" class="edge">
<title>2--4</title>
<path fill="none" stroke="#000000" d="M197.4977,-59.0802C197.4977,-123.5703 197.4977,-275.9242 197.4977,-340.5721"/>
<text text-anchor="middle" x="193.9977" y="-204.0262" font-family="Times,serif" font-size="14.00" fill="#000000">6</text>
</g>
<!-- 3&#45;&#45;4 -->
<g id="edge6" class="edge">
<title>3--4</title>
<path fill="none" stroke="#000000" d="M339.4578,-228.4508C305.8994,-262.0092 250.883,-317.0257 220.1233,-347.7853"/>
<text text-anchor="middle" x="276.2906" y="-292.3181" font-family="Times,serif" font-size="14.00" fill="#000000">4</text>
</g>
<!-- 1 -->
<g id="node4" class="node">
<title>1</title>
<ellipse fill="none" stroke="#000000" cx="27" cy="-199.9133" rx="27" ry="18"/>
<text text-anchor="middle" x="27" y="-195.7133" font-family="Times,serif" font-size="14.00" fill="#000000">1</text>
</g>
<!-- 1&#45;&#45;2 -->
<g id="edge1" class="edge">
<title>1--2</title>
<path fill="none" stroke="#000000" d="M42.1305,-184.7828C70.981,-155.9323 134.2088,-92.7045 170.4847,-56.4286"/>
<text text-anchor="middle" x="102.8076" y="-124.8057" font-family="Times,serif" font-size="14.00" fill="#000000">5</text>
</g>
<!-- 1&#45;&#45;3 -->
<g id="edge2" class="edge">
<title>1--3</title>
<path fill="none" stroke="#000000" d="M54.0424,-199.9133C100.1183,-199.9133 196.0141,-199.9133 269.7688,-199.9133"/>
<text text-anchor="middle" x="158.4056" y="-204.1133" font-family="Times,serif" font-size="14.00" fill="#000000">6</text>
</g>
<!-- 1&#45;&#45;4 -->
<g id="edge3" class="edge">
<title>1--4</title>
<path fill="none" stroke="#000000" d="M42.1305,-215.0438C72.1219,-245.0352 139.2636,-312.1769 174.6584,-347.5717"/>
<text text-anchor="middle" x="104.8945" y="-285.5078" font-family="Times,serif" font-size="14.00" fill="#000000">6</text>
</g>
</g>
</svg>